<svg width="612" height="612" xmlns="http://www.w3.org/2000/svg" xml:space="preserve" version="1.1">

 <g>
  <title>Layer 1</title>
  <ellipse stroke="#000" ry="242.5" rx="280" id="svg_19" cy="268.5" cx="309" fill="#7209b7"/>
  <rect transform="rotate(-24.2106 205.389 481.394)" stroke-width="0" stroke="#000" id="svg_20" height="92.22918" width="152.72792" y="435.27984" x="129.02494" fill="#7209b7"/>
  <g id="svg_1">
   <g id="_x32__26_">
    <g id="svg_2">
     <path id="svg_3" d="m401.625,325.125l-191.25,0c-10.557,0 -19.125,8.568 -19.125,19.125s8.568,19.125 19.125,19.125l191.25,0c10.557,0 19.125,-8.568 19.125,-19.125s-8.568,-19.125 -19.125,-19.125zm38.25,-114.75l-267.75,0c-10.557,0 -19.125,8.568 -19.125,19.125s8.568,19.125 19.125,19.125l267.75,0c10.557,0 19.125,-8.568 19.125,-19.125s-8.568,-19.125 -19.125,-19.125zm-133.875,-210.375c-168.988,0 -306,119.875 -306,267.75c0,84.514 44.848,159.751 114.75,208.826l0,135.424l134.047,-81.339c18.552,3.061 37.638,4.839 57.203,4.839c169.008,0 306,-119.875 306,-267.75c0,-147.875 -136.992,-267.75 -306,-267.75zm0,497.25c-22.338,0 -43.911,-2.601 -64.643,-7.019l-90.041,54.123l1.205,-88.701c-69.021,-41.52 -114.271,-110.14 -114.271,-187.903c0,-126.741 119.875,-229.5 267.75,-229.5c147.875,0 267.75,102.759 267.75,229.5s-119.875,229.5 -267.75,229.5z"/>
    </g>
   </g>
  </g>
  <g id="svg_4"/>
  <g id="svg_5"/>
  <g id="svg_6"/>
  <g id="svg_7"/>
  <g id="svg_8"/>
  <g id="svg_9"/>
  <g id="svg_10"/>
  <g id="svg_11"/>
  <g id="svg_12"/>
  <g id="svg_13"/>
  <g id="svg_14"/>
  <g id="svg_15"/>
  <g id="svg_16"/>
  <g id="svg_17"/>
  <g id="svg_18"/>
 </g>
</svg>