<?xml version="1.0" ?><svg data-name="Layer 1" id="Layer_1" viewBox="0 0 70 70" xmlns="http://www.w3.org/2000/svg" xmlns:xlink="http://www.w3.org/1999/xlink"><defs><style>.cls-1,.cls-5{fill:none;}.cls-2{fill:#ef3d3d;}.cls-3{fill:#ff7e7e;}.cls-4{fill:#ffd41f;}.cls-5{stroke:#1a1a1a;stroke-linecap:round;stroke-linejoin:round;stroke-width:1.5px;}.cls-6{fill:#1a1a1a;}.cls-7{fill:url(#New_Pattern_Swatch_4);}.cls-8{fill:url(#New_Pattern_Swatch_5);}</style><pattern data-name="New Pattern Swatch 4" height="23.5" id="New_Pattern_Swatch_4" patternTransform="translate(-2.5 -14)" patternUnits="userSpaceOnUse" viewBox="0 0 23.5 23.5" width="23.5"><rect class="cls-1" height="23.5" width="23.5"/><rect class="cls-2" height="23.5" width="23.5"/></pattern><pattern data-name="New Pattern Swatch 5" height="23.5" id="New_Pattern_Swatch_5" patternTransform="translate(-2.5 -14)" patternUnits="userSpaceOnUse" viewBox="0 0 23.5 23.5" width="23.5"><rect class="cls-1" height="23.5" width="23.5"/><rect class="cls-3" height="23.5" width="23.5"/></pattern></defs><title/><path class="cls-4" d="M67,35A32,32,0,1,1,50.28,6.87,32,32,0,0,1,67,35Z"/><circle class="cls-5" cx="35" cy="35" r="32"/><path class="cls-6" d="M33.46,26.82c0,7.56-5.81,13.69-13,13.69s-13-6.13-13-13.69a14.08,14.08,0,0,1,.57-4,204,204,0,0,0,25.23,2A14.63,14.63,0,0,1,33.46,26.82Z"/><path class="cls-6" d="M62.48,26.82c0,7.56-5.81,13.69-13,13.69s-13-6.13-13-13.69a14.63,14.63,0,0,1,.14-2,204.12,204.12,0,0,0,25.22-2A13.73,13.73,0,0,1,62.48,26.82Z"/><path class="cls-6" d="M33.94,27.88,31.14,27v-2.2q3.86.06,7.72,0V27l-2.8.87A3.49,3.49,0,0,1,33.94,27.88Z"/><path class="cls-1" d="M66.78,23.62c-1.46.21-2.91.41-4.37.59"/><path class="cls-6" d="M7.56,27.88,4.71,24.81l.49-3.37a6,6,0,0,0,2.89,1.4"/><path class="cls-6" d="M62.43,27.88l2.85-3.07-.49-3.37a6,6,0,0,1-2.88,1.4"/><path class="cls-7" d="M43,52a14.53,14.53,0,0,1-11.11,5,14.84,14.84,0,0,1-7.61-2.07A14.31,14.31,0,0,0,35,59.66c7.08,0,12.93-4.94,13.8-11.31A17.42,17.42,0,0,1,43,52Z"/><path class="cls-8" d="M43,52a14.54,14.54,0,0,1-11.11,5,14.79,14.79,0,0,1-7.6-2.08,12.41,12.41,0,0,1-3.08-6.59A19.86,19.86,0,0,0,35,53.46,22.14,22.14,0,0,0,43,52Z"/><path class="cls-5" d="M48.8,48.35c-.87,6.37-6.72,11.31-13.8,11.31S22.06,54.72,21.2,48.35A19.84,19.84,0,0,0,35,53.45,19.86,19.86,0,0,0,48.8,48.35Z"/></svg>